<svg width="36" height="36" viewBox="0 0 36 36" fill="none" xmlns="http://www.w3.org/2000/svg">
<path d="M19.3874 3.03727C19.3168 3.06671 19.1931 3.18449 19.1107 3.29049C18.987 3.45537 9.3648 20.2913 9.09981 20.8095C8.94081 21.1157 8.97026 21.3395 9.19992 21.5691L9.40013 21.7694H13.5576C15.8424 21.7694 17.715 21.787 17.715 21.8165C17.715 21.84 17.4795 24.1661 17.1851 26.9809C16.8965 29.7957 16.6551 32.216 16.6551 32.3514C16.6551 32.8461 17.1674 33.1641 17.5678 32.9109C17.7092 32.8225 18.7868 30.9499 22.7205 23.9423C26.3067 17.5589 27.7024 15.0268 27.7141 14.8678C27.7377 14.6793 27.7082 14.6145 27.5316 14.4379L27.3255 14.2318H23.1091C19.3933 14.2318 18.8928 14.22 18.8928 14.1434C18.8928 14.0963 19.199 11.7291 19.57 8.88479C19.941 6.04053 20.2472 3.64381 20.2472 3.55548C20.2472 3.20215 19.729 2.89005 19.3874 3.03727Z" fill="#662AB2"/>
</svg>
